<svg width="20" height="25" viewBox="0 0 20 25" fill="none" xmlns="http://www.w3.org/2000/svg">
<g id="image" clip-path="url(#clip0_95_1063)">
<path id="Vector" d="M4.39046 12.3431L4.10043 15.2253L3.74031 20.9782C3.73327 21.1252 3.741 21.2726 3.76336 21.4181C3.79781 21.4356 3.83627 21.4438 3.87487 21.4418C3.91348 21.4397 3.95087 21.4276 3.98329 21.4065C4.13532 21.1894 4.2708 20.9611 4.38858 20.7237C4.71308 20.0614 5.12598 19.4462 5.61598 18.8951C6.14756 18.2468 6.62762 17.558 7.05178 16.835L11.9498 9.30049L12.7719 8.15472C13.2198 7.64629 13.6337 7.10889 14.0109 6.54602L17.0794 1.97444C17.1555 1.90359 17.2253 1.82613 17.2878 1.74298C17.3053 1.70853 17.3135 1.67007 17.3115 1.63147C17.3094 1.59286 17.2973 1.55547 17.2762 1.52304C17.1306 1.44697 16.9797 1.38118 16.8248 1.32616L15.0308 0.758568C14.0168 0.471248 13.0354 0.0792169 12.1025 -0.411196C12.0326 -0.4883 11.955 -0.558127 11.871 -0.619604L8.28292 -1.75479L5.34309 -3.14449C4.62041 -3.46961 3.86858 -3.72558 3.09764 -3.90896C2.94302 -3.96461 2.79223 -4.03038 2.64625 -4.10585C2.53112 -4.07057 2.40668 -4.08247 2.30033 -4.13893C2.19397 -4.1954 2.1144 -4.2918 2.07912 -4.40693C2.04384 -4.52206 2.05574 -4.64649 2.11221 -4.75285C2.16867 -4.85921 2.26508 -4.93878 2.38021 -4.97406C2.50679 -5.13906 2.64616 -5.29384 2.79702 -5.43698C3.64323 -6.36079 4.40289 -7.36029 5.06646 -8.42291C5.58494 -9.07272 6.14168 -9.69104 6.73372 -10.2746L8.80628 -12.8091C9.03438 -13.0974 9.23957 -13.4031 9.41998 -13.7235C10.0221 -14.8577 10.8558 -15.7835 11.9093 -16.7209C11.9742 -16.8021 12.0438 -16.8794 12.1178 -16.9524C12.1147 -17.0107 12.1349 -17.0679 12.174 -17.1113C12.2131 -17.1547 12.2678 -17.1808 12.3262 -17.1838C12.3845 -17.1869 12.4416 -17.1667 12.4851 -17.1276C12.5285 -17.0885 12.5546 -17.0338 12.5576 -16.9754C12.5997 -16.9106 12.624 -16.8358 12.6281 -16.7586C12.6321 -16.6814 12.6158 -16.6045 12.5807 -16.5356C12.3908 -16.2881 12.1818 -16.0559 11.9555 -15.8412C11.2004 -14.976 10.5114 -14.0552 9.89442 -13.0867C9.21278 -12.0367 8.45422 -11.0386 7.62499 -10.1008C6.7866 -9.17046 6.02748 -8.17167 5.35555 -7.11483C5.04553 -6.5641 4.70535 -6.0309 4.33656 -5.51766L3.91975 -5.05474C3.9022 -5.02029 3.89402 -4.98184 3.89605 -4.94323C3.89807 -4.90462 3.91022 -4.86723 3.93127 -4.83481L8.20224 -3.29433L10.2278 -2.51833L10.9106 -2.11304C11.9096 -1.8852 12.8858 -1.56728 13.8274 -1.16321C14.0435 -1.00966 14.2719 -0.874105 14.5102 -0.757919L18.3413 0.805608C18.4245 0.868109 18.5019 0.937851 18.5728 1.01402C18.6149 1.07886 18.6392 1.15365 18.6433 1.23086C18.6473 1.30808 18.6309 1.38499 18.5958 1.45389C18.5502 1.68182 18.4883 1.90617 18.4105 2.12521L16.1526 5.33108C16.0051 5.55115 15.8698 5.77911 15.7473 6.01394C15.1484 7.06094 14.4629 8.05589 13.6978 8.98835L12.6788 10.5855L7.97763 17.6686C7.54459 18.3859 7.06496 19.0741 6.54182 19.7287C6.08252 20.303 5.67196 20.9147 5.31443 21.5573L4.90914 22.2402C4.89159 22.2746 4.88341 22.3131 4.88544 22.3517C4.88746 22.3903 4.89961 22.4277 4.92066 22.4601L6.85397 21.4766L9.42402 20.0187L11.5542 18.5838L14.3327 16.8945C14.4782 16.8721 14.6255 16.8644 14.7725 16.8714C14.8588 16.8555 14.9479 16.8658 15.0283 16.9009C15.1087 16.9359 15.1769 16.9942 15.2239 17.0683C15.2729 17.1071 15.313 17.1559 15.3417 17.2114C15.3704 17.267 15.3869 17.328 15.3901 17.3904C15.3934 17.4528 15.3834 17.5152 15.3607 17.5734C15.338 17.6316 15.3032 17.6844 15.2585 17.7281C15.0483 17.8271 14.8317 17.9121 14.6102 17.9826L12.8969 18.9546L8.62497 21.6044L3.48486 24.5202C3.34697 24.6095 3.20394 24.6907 3.05652 24.7632C2.98744 24.8092 2.90677 24.8347 2.82382 24.8369C2.74086 24.839 2.65898 24.8177 2.58762 24.7753C2.51626 24.733 2.45831 24.6713 2.42046 24.5974C2.38261 24.5236 2.36638 24.4406 2.37366 24.3579C2.3513 24.2124 2.34357 24.0651 2.35061 23.918L2.48986 22.367L2.87303 17.054L3.29078 12.4008C3.32059 12.0272 3.3748 11.656 3.45309 11.2896C3.47198 11.225 3.5054 11.1657 3.55076 11.1161C3.59613 11.0665 3.65225 11.0279 3.71483 11.0034C3.7774 10.9788 3.84477 10.9689 3.91177 10.9744C3.97877 10.9799 4.04362 11.0006 4.10136 11.035C4.17992 11.0741 4.24502 11.1358 4.28831 11.2121C4.3316 11.2884 4.35112 11.3759 4.34435 11.4634L4.39046 12.3431Z" fill="#6F6FFD"/>
</g>
<defs>
<clipPath id="clip0_95_1063">
<rect width="17.5308" height="41.2062" fill="white" transform="translate(0.242188 -16.3301) rotate(-3)"/>
</clipPath>
</defs>
</svg>
