<svg width="358" height="192" viewBox="0 0 358 192" fill="none" xmlns="http://www.w3.org/2000/svg">
<rect width="358" height="192" fill="#D42257"/>
<path fill-rule="evenodd" clip-rule="evenodd" d="M100 0L130 15L132 16V2.18C132 1.44673 131.92 0.71567 131.76 0L129.7 0C129.9 0.709378 130.001 1.44298 130 2.18V12.76L104.47 0H100ZM131.76 24C131.435 22.5512 130.792 21.1928 129.877 20.0235C128.962 18.8543 127.798 17.9034 126.47 17.24L94 1L92 0V13.82C92.001 15.6766 92.5188 17.4963 93.4955 19.0753C94.4722 20.6542 95.8692 21.9301 97.53 22.76L100 24H104.47L98.42 20.98C97.0909 20.3149 95.9733 19.2927 95.1926 18.0281C94.4119 16.7634 93.9989 15.3062 94 13.82V3.24L125.58 19.02C126.575 19.5178 127.456 20.2179 128.165 21.0754C128.875 21.9329 129.397 22.929 129.7 24H131.76ZM168 24L170.47 22.76C172.131 21.9301 173.528 20.6542 174.504 19.0753C175.481 17.4963 175.999 15.6766 176 13.82V0L174 1L141.53 17.24C140.202 17.9034 139.038 18.8543 138.123 20.0235C137.208 21.1928 136.565 22.5512 136.24 24H138.3C138.603 22.929 139.125 21.9329 139.835 21.0754C140.544 20.2179 141.425 19.5178 142.42 19.02L174 3.24V13.82C174.001 15.3062 173.588 16.7634 172.807 18.0281C172.027 19.2927 170.909 20.3149 169.58 20.98L163.53 24H168ZM168 0L138 15L136 16V2.18C136 1.44673 136.08 0.71567 136.24 0L138.3 0C138.1 0.709378 137.999 1.44298 138 2.18V12.76L163.53 0H168Z" fill="white" fill-opacity="0.4"/>
<g clip-path="url(#clip0_144_88)">
<path fill-rule="evenodd" clip-rule="evenodd" d="M278 0L308 15L310 16V2.18C310 1.44673 309.92 0.71567 309.76 0L307.7 0C307.9 0.709378 308.001 1.44298 308 2.18V12.76L282.47 0H278ZM309.76 24C309.435 22.5512 308.792 21.1928 307.877 20.0235C306.962 18.8543 305.798 17.9034 304.47 17.24L272 1L270 0V13.82C270.001 15.6766 270.519 17.4963 271.496 19.0753C272.472 20.6542 273.869 21.9301 275.53 22.76L278 24H282.47L276.42 20.98C275.091 20.3149 273.973 19.2927 273.193 18.0281C272.412 16.7634 271.999 15.3062 272 13.82V3.24L303.58 19.02C304.575 19.5178 305.456 20.2179 306.165 21.0754C306.875 21.9329 307.397 22.929 307.7 24H309.76ZM346 24L348.47 22.76C350.131 21.9301 351.528 20.6542 352.504 19.0753C353.481 17.4963 353.999 15.6766 354 13.82V0L352 1L319.53 17.24C318.202 17.9034 317.038 18.8543 316.123 20.0235C315.208 21.1928 314.565 22.5512 314.24 24H316.3C316.603 22.929 317.125 21.9329 317.835 21.0754C318.544 20.2179 319.425 19.5178 320.42 19.02L352 3.24V13.82C352.001 15.3062 351.588 16.7634 350.807 18.0281C350.027 19.2927 348.909 20.3149 347.58 20.98L341.53 24H346ZM346 0L316 15L314 16V2.18C314 1.44673 314.08 0.71567 314.24 0L316.3 0C316.1 0.709378 315.999 1.44298 316 2.18V12.76L341.53 0H346Z" fill="white" fill-opacity="0.4"/>
</g>
<g clip-path="url(#clip1_144_88)">
<path fill-rule="evenodd" clip-rule="evenodd" d="M189 0L219 15L221 16V2.18C221 1.44673 220.92 0.71567 220.76 0L218.7 0C218.9 0.709378 219.001 1.44298 219 2.18V12.76L193.47 0H189ZM220.76 24C220.435 22.5512 219.792 21.1928 218.877 20.0235C217.962 18.8543 216.798 17.9034 215.47 17.24L183 1L181 0V13.82C181.001 15.6766 181.519 17.4963 182.496 19.0753C183.472 20.6542 184.869 21.9301 186.53 22.76L189 24H193.47L187.42 20.98C186.091 20.3149 184.973 19.2927 184.193 18.0281C183.412 16.7634 182.999 15.3062 183 13.82V3.24L214.58 19.02C215.575 19.5178 216.456 20.2179 217.165 21.0754C217.875 21.9329 218.397 22.929 218.7 24H220.76ZM257 24L259.47 22.76C261.131 21.9301 262.528 20.6542 263.504 19.0753C264.481 17.4963 264.999 15.6766 265 13.82V0L263 1L230.53 17.24C229.202 17.9034 228.038 18.8543 227.123 20.0235C226.208 21.1928 225.565 22.5512 225.24 24H227.3C227.603 22.929 228.125 21.9329 228.835 21.0754C229.544 20.2179 230.425 19.5178 231.42 19.02L263 3.24V13.82C263.001 15.3062 262.588 16.7634 261.807 18.0281C261.027 19.2927 259.909 20.3149 258.58 20.98L252.53 24H257ZM257 0L227 15L225 16V2.18C225 1.44673 225.08 0.71567 225.24 0L227.3 0C227.1 0.709378 226.999 1.44298 227 2.18V12.76L252.53 0H257Z" fill="white" fill-opacity="0.4"/>
</g>
<g clip-path="url(#clip2_144_88)">
<path fill-rule="evenodd" clip-rule="evenodd" d="M11 0L41 15L43 16V2.18C43.0002 1.44673 42.9197 0.71567 42.76 0L40.7 0C40.8999 0.709378 41.0009 1.44298 41 2.18V12.76L15.47 0H11ZM42.76 24C42.4354 22.5512 41.7922 21.1928 40.8772 20.0235C39.9622 18.8543 38.7983 17.9034 37.47 17.24L5 1L3 0V13.82C3.00099 15.6766 3.51883 17.4963 4.49552 19.0753C5.47222 20.6542 6.86919 21.9301 8.53 22.76L11 24H15.47L9.42 20.98C8.09088 20.3149 6.97332 19.2927 6.19261 18.0281C5.41191 16.7634 4.99894 15.3062 5 13.82V3.24L36.58 19.02C37.5754 19.5178 38.4559 20.2179 39.1653 21.0754C39.8747 21.9329 40.3974 22.929 40.7 24H42.76ZM79 24L81.47 22.76C83.1308 21.9301 84.5278 20.6542 85.5045 19.0753C86.4812 17.4963 86.999 15.6766 87 13.82V0L85 1L52.53 17.24C51.2017 17.9034 50.0378 18.8543 49.1228 20.0235C48.2078 21.1928 47.5646 22.5512 47.24 24H49.3C49.6026 22.929 50.1253 21.9329 50.8347 21.0754C51.5441 20.2179 52.4246 19.5178 53.42 19.02L85 3.24V13.82C85.0011 15.3062 84.5881 16.7634 83.8074 18.0281C83.0267 19.2927 81.9091 20.3149 80.58 20.98L74.53 24H79ZM79 0L49 15L47 16V2.18C46.9998 1.44673 47.0803 0.71567 47.24 0L49.3 0C49.1001 0.709378 48.9991 1.44298 49 2.18V12.76L74.53 0H79Z" fill="white" fill-opacity="0.4"/>
</g>
<path fill-rule="evenodd" clip-rule="evenodd" d="M100 24L130 39L132 40V26.18C132 25.4467 131.92 24.7157 131.76 24L129.7 24C129.9 24.7094 130.001 25.443 130 26.18V36.76L104.47 24H100ZM131.76 48C131.435 46.5512 130.792 45.1928 129.877 44.0235C128.962 42.8543 127.798 41.9034 126.47 41.24L94 25L92 24V37.82C92.001 39.6766 92.5188 41.4963 93.4955 43.0753C94.4722 44.6542 95.8692 45.9301 97.53 46.76L100 48H104.47L98.42 44.98C97.0909 44.3149 95.9733 43.2927 95.1926 42.0281C94.4119 40.7634 93.9989 39.3062 94 37.82V27.24L125.58 43.02C126.575 43.5178 127.456 44.2179 128.165 45.0754C128.875 45.9329 129.397 46.929 129.7 48H131.76ZM168 48L170.47 46.76C172.131 45.9301 173.528 44.6542 174.504 43.0753C175.481 41.4963 175.999 39.6766 176 37.82V24L174 25L141.53 41.24C140.202 41.9034 139.038 42.8543 138.123 44.0235C137.208 45.1928 136.565 46.5512 136.24 48H138.3C138.603 46.929 139.125 45.9329 139.835 45.0754C140.544 44.2179 141.425 43.5178 142.42 43.02L174 27.24V37.82C174.001 39.3062 173.588 40.7634 172.807 42.0281C172.027 43.2927 170.909 44.3149 169.58 44.98L163.53 48H168ZM168 24L138 39L136 40V26.18C136 25.4467 136.08 24.7157 136.24 24L138.3 24C138.1 24.7094 137.999 25.443 138 26.18V36.76L163.53 24H168Z" fill="white" fill-opacity="0.4"/>
<g clip-path="url(#clip3_144_88)">
<path fill-rule="evenodd" clip-rule="evenodd" d="M278 24L308 39L310 40V26.18C310 25.4467 309.92 24.7157 309.76 24L307.7 24C307.9 24.7094 308.001 25.443 308 26.18V36.76L282.47 24H278ZM309.76 48C309.435 46.5512 308.792 45.1928 307.877 44.0235C306.962 42.8543 305.798 41.9034 304.47 41.24L272 25L270 24V37.82C270.001 39.6766 270.519 41.4963 271.496 43.0753C272.472 44.6542 273.869 45.9301 275.53 46.76L278 48H282.47L276.42 44.98C275.091 44.3149 273.973 43.2927 273.193 42.0281C272.412 40.7634 271.999 39.3062 272 37.82V27.24L303.58 43.02C304.575 43.5178 305.456 44.2179 306.165 45.0754C306.875 45.9329 307.397 46.929 307.7 48H309.76ZM346 48L348.47 46.76C350.131 45.9301 351.528 44.6542 352.504 43.0753C353.481 41.4963 353.999 39.6766 354 37.82V24L352 25L319.53 41.24C318.202 41.9034 317.038 42.8543 316.123 44.0235C315.208 45.1928 314.565 46.5512 314.24 48H316.3C316.603 46.929 317.125 45.9329 317.835 45.0754C318.544 44.2179 319.425 43.5178 320.42 43.02L352 27.24V37.82C352.001 39.3062 351.588 40.7634 350.807 42.0281C350.027 43.2927 348.909 44.3149 347.58 44.98L341.53 48H346ZM346 24L316 39L314 40V26.18C314 25.4467 314.08 24.7157 314.24 24L316.3 24C316.1 24.7094 315.999 25.443 316 26.18V36.76L341.53 24H346Z" fill="white" fill-opacity="0.4"/>
</g>
<g clip-path="url(#clip4_144_88)">
<path fill-rule="evenodd" clip-rule="evenodd" d="M189 24L219 39L221 40V26.18C221 25.4467 220.92 24.7157 220.76 24L218.7 24C218.9 24.7094 219.001 25.443 219 26.18V36.76L193.47 24H189ZM220.76 48C220.435 46.5512 219.792 45.1928 218.877 44.0235C217.962 42.8543 216.798 41.9034 215.47 41.24L183 25L181 24V37.82C181.001 39.6766 181.519 41.4963 182.496 43.0753C183.472 44.6542 184.869 45.9301 186.53 46.76L189 48H193.47L187.42 44.98C186.091 44.3149 184.973 43.2927 184.193 42.0281C183.412 40.7634 182.999 39.3062 183 37.82V27.24L214.58 43.02C215.575 43.5178 216.456 44.2179 217.165 45.0754C217.875 45.9329 218.397 46.929 218.7 48H220.76ZM257 48L259.47 46.76C261.131 45.9301 262.528 44.6542 263.504 43.0753C264.481 41.4963 264.999 39.6766 265 37.82V24L263 25L230.53 41.24C229.202 41.9034 228.038 42.8543 227.123 44.0235C226.208 45.1928 225.565 46.5512 225.24 48H227.3C227.603 46.929 228.125 45.9329 228.835 45.0754C229.544 44.2179 230.425 43.5178 231.42 43.02L263 27.24V37.82C263.001 39.3062 262.588 40.7634 261.807 42.0281C261.027 43.2927 259.909 44.3149 258.58 44.98L252.53 48H257ZM257 24L227 39L225 40V26.18C225 25.4467 225.08 24.7157 225.24 24L227.3 24C227.1 24.7094 226.999 25.443 227 26.18V36.76L252.53 24H257Z" fill="white" fill-opacity="0.4"/>
</g>
<g clip-path="url(#clip5_144_88)">
<path fill-rule="evenodd" clip-rule="evenodd" d="M11 24L41 39L43 40V26.18C43.0002 25.4467 42.9197 24.7157 42.76 24L40.7 24C40.8999 24.7094 41.0009 25.443 41 26.18V36.76L15.47 24H11ZM42.76 48C42.4354 46.5512 41.7922 45.1928 40.8772 44.0235C39.9622 42.8543 38.7983 41.9034 37.47 41.24L5 25L3 24V37.82C3.00099 39.6766 3.51883 41.4963 4.49552 43.0753C5.47222 44.6542 6.86919 45.9301 8.53 46.76L11 48H15.47L9.42 44.98C8.09088 44.3149 6.97332 43.2927 6.19261 42.0281C5.41191 40.7634 4.99894 39.3062 5 37.82V27.24L36.58 43.02C37.5754 43.5178 38.4559 44.2179 39.1653 45.0754C39.8747 45.9329 40.3974 46.929 40.7 48H42.76ZM79 48L81.47 46.76C83.1308 45.9301 84.5278 44.6542 85.5045 43.0753C86.4812 41.4963 86.999 39.6766 87 37.82V24L85 25L52.53 41.24C51.2017 41.9034 50.0378 42.8543 49.1228 44.0235C48.2078 45.1928 47.5646 46.5512 47.24 48H49.3C49.6026 46.929 50.1253 45.9329 50.8347 45.0754C51.5441 44.2179 52.4246 43.5178 53.42 43.02L85 27.24V37.82C85.0011 39.3062 84.5881 40.7634 83.8074 42.0281C83.0267 43.2927 81.9091 44.3149 80.58 44.98L74.53 48H79ZM79 24L49 39L47 40V26.18C46.9998 25.4467 47.0803 24.7157 47.24 24L49.3 24C49.1001 24.7094 48.9991 25.443 49 26.18V36.76L74.53 24H79Z" fill="white" fill-opacity="0.4"/>
</g>
<path fill-rule="evenodd" clip-rule="evenodd" d="M100 48L130 63L132 64V50.18C132 49.4467 131.92 48.7157 131.76 48H129.7C129.9 48.7094 130.001 49.443 130 50.18V60.76L104.47 48H100ZM131.76 72C131.435 70.5512 130.792 69.1928 129.877 68.0235C128.962 66.8543 127.798 65.9034 126.47 65.24L94 49L92 48V61.82C92.001 63.6766 92.5188 65.4963 93.4955 67.0753C94.4722 68.6542 95.8692 69.9301 97.53 70.76L100 72H104.47L98.42 68.98C97.0909 68.3149 95.9733 67.2927 95.1926 66.0281C94.4119 64.7634 93.9989 63.3062 94 61.82V51.24L125.58 67.02C126.575 67.5178 127.456 68.2179 128.165 69.0754C128.875 69.9329 129.397 70.929 129.7 72H131.76ZM168 72L170.47 70.76C172.131 69.9301 173.528 68.6542 174.504 67.0753C175.481 65.4963 175.999 63.6766 176 61.82V48L174 49L141.53 65.24C140.202 65.9034 139.038 66.8543 138.123 68.0235C137.208 69.1928 136.565 70.5512 136.24 72H138.3C138.603 70.929 139.125 69.9329 139.835 69.0754C140.544 68.2179 141.425 67.5178 142.42 67.02L174 51.24V61.82C174.001 63.3062 173.588 64.7634 172.807 66.0281C172.027 67.2927 170.909 68.3149 169.58 68.98L163.53 72H168ZM168 48L138 63L136 64V50.18C136 49.4467 136.08 48.7157 136.24 48L138.3 48C138.1 48.7094 137.999 49.443 138 50.18V60.76L163.53 48H168Z" fill="white" fill-opacity="0.4"/>
<g clip-path="url(#clip6_144_88)">
<path fill-rule="evenodd" clip-rule="evenodd" d="M278 48L308 63L310 64V50.18C310 49.4467 309.92 48.7157 309.76 48H307.7C307.9 48.7094 308.001 49.443 308 50.18V60.76L282.47 48H278ZM309.76 72C309.435 70.5512 308.792 69.1928 307.877 68.0235C306.962 66.8543 305.798 65.9034 304.47 65.24L272 49L270 48V61.82C270.001 63.6766 270.519 65.4963 271.496 67.0753C272.472 68.6542 273.869 69.9301 275.53 70.76L278 72H282.47L276.42 68.98C275.091 68.3149 273.973 67.2927 273.193 66.0281C272.412 64.7634 271.999 63.3062 272 61.82V51.24L303.58 67.02C304.575 67.5178 305.456 68.2179 306.165 69.0754C306.875 69.9329 307.397 70.929 307.7 72H309.76ZM346 72L348.47 70.76C350.131 69.9301 351.528 68.6542 352.504 67.0753C353.481 65.4963 353.999 63.6766 354 61.82V48L352 49L319.53 65.24C318.202 65.9034 317.038 66.8543 316.123 68.0235C315.208 69.1928 314.565 70.5512 314.24 72H316.3C316.603 70.929 317.125 69.9329 317.835 69.0754C318.544 68.2179 319.425 67.5178 320.42 67.02L352 51.24V61.82C352.001 63.3062 351.588 64.7634 350.807 66.0281C350.027 67.2927 348.909 68.3149 347.58 68.98L341.53 72H346ZM346 48L316 63L314 64V50.18C314 49.4467 314.08 48.7157 314.24 48L316.3 48C316.1 48.7094 315.999 49.443 316 50.18V60.76L341.53 48H346Z" fill="white" fill-opacity="0.4"/>
</g>
<g clip-path="url(#clip7_144_88)">
<path fill-rule="evenodd" clip-rule="evenodd" d="M189 48L219 63L221 64V50.18C221 49.4467 220.92 48.7157 220.76 48H218.7C218.9 48.7094 219.001 49.443 219 50.18V60.76L193.47 48H189ZM220.76 72C220.435 70.5512 219.792 69.1928 218.877 68.0235C217.962 66.8543 216.798 65.9034 215.47 65.24L183 49L181 48V61.82C181.001 63.6766 181.519 65.4963 182.496 67.0753C183.472 68.6542 184.869 69.9301 186.53 70.76L189 72H193.47L187.42 68.98C186.091 68.3149 184.973 67.2927 184.193 66.0281C183.412 64.7634 182.999 63.3062 183 61.82V51.24L214.58 67.02C215.575 67.5178 216.456 68.2179 217.165 69.0754C217.875 69.9329 218.397 70.929 218.7 72H220.76ZM257 72L259.47 70.76C261.131 69.9301 262.528 68.6542 263.504 67.0753C264.481 65.4963 264.999 63.6766 265 61.82V48L263 49L230.53 65.24C229.202 65.9034 228.038 66.8543 227.123 68.0235C226.208 69.1928 225.565 70.5512 225.24 72H227.3C227.603 70.929 228.125 69.9329 228.835 69.0754C229.544 68.2179 230.425 67.5178 231.42 67.02L263 51.24V61.82C263.001 63.3062 262.588 64.7634 261.807 66.0281C261.027 67.2927 259.909 68.3149 258.58 68.98L252.53 72H257ZM257 48L227 63L225 64V50.18C225 49.4467 225.08 48.7157 225.24 48L227.3 48C227.1 48.7094 226.999 49.443 227 50.18V60.76L252.53 48H257Z" fill="white" fill-opacity="0.4"/>
</g>
<g clip-path="url(#clip8_144_88)">
<path fill-rule="evenodd" clip-rule="evenodd" d="M11 48L41 63L43 64V50.18C43.0002 49.4467 42.9197 48.7157 42.76 48H40.7C40.8999 48.7094 41.0009 49.443 41 50.18V60.76L15.47 48H11ZM42.76 72C42.4354 70.5512 41.7922 69.1928 40.8772 68.0235C39.9622 66.8543 38.7983 65.9034 37.47 65.24L5 49L3 48V61.82C3.00099 63.6766 3.51883 65.4963 4.49552 67.0753C5.47222 68.6542 6.86919 69.9301 8.53 70.76L11 72H15.47L9.42 68.98C8.09088 68.3149 6.97332 67.2927 6.19261 66.0281C5.41191 64.7634 4.99894 63.3062 5 61.82V51.24L36.58 67.02C37.5754 67.5178 38.4559 68.2179 39.1653 69.0754C39.8747 69.9329 40.3974 70.929 40.7 72H42.76ZM79 72L81.47 70.76C83.1308 69.9301 84.5278 68.6542 85.5045 67.0753C86.4812 65.4963 86.999 63.6766 87 61.82V48L85 49L52.53 65.24C51.2017 65.9034 50.0378 66.8543 49.1228 68.0235C48.2078 69.1928 47.5646 70.5512 47.24 72H49.3C49.6026 70.929 50.1253 69.9329 50.8347 69.0754C51.5441 68.2179 52.4246 67.5178 53.42 67.02L85 51.24V61.82C85.0011 63.3062 84.5881 64.7634 83.8074 66.0281C83.0267 67.2927 81.9091 68.3149 80.58 68.98L74.53 72H79ZM79 48L49 63L47 64V50.18C46.9998 49.4467 47.0803 48.7157 47.24 48L49.3 48C49.1001 48.7094 48.9991 49.443 49 50.18V60.76L74.53 48H79Z" fill="white" fill-opacity="0.4"/>
</g>
<path fill-rule="evenodd" clip-rule="evenodd" d="M100 72L130 87L132 88V74.18C132 73.4467 131.92 72.7157 131.76 72H129.7C129.9 72.7094 130.001 73.443 130 74.18V84.76L104.47 72H100ZM131.76 96C131.435 94.5512 130.792 93.1928 129.877 92.0235C128.962 90.8543 127.798 89.9034 126.47 89.24L94 73L92 72V85.82C92.001 87.6766 92.5188 89.4963 93.4955 91.0753C94.4722 92.6542 95.8692 93.9301 97.53 94.76L100 96H104.47L98.42 92.98C97.0909 92.3149 95.9733 91.2927 95.1926 90.0281C94.4119 88.7634 93.9989 87.3062 94 85.82V75.24L125.58 91.02C126.575 91.5178 127.456 92.2179 128.165 93.0754C128.875 93.9329 129.397 94.929 129.7 96H131.76ZM168 96L170.47 94.76C172.131 93.9301 173.528 92.6542 174.504 91.0753C175.481 89.4963 175.999 87.6766 176 85.82V72L174 73L141.53 89.24C140.202 89.9034 139.038 90.8543 138.123 92.0235C137.208 93.1928 136.565 94.5512 136.24 96H138.3C138.603 94.929 139.125 93.9329 139.835 93.0754C140.544 92.2179 141.425 91.5178 142.42 91.02L174 75.24V85.82C174.001 87.3062 173.588 88.7634 172.807 90.0281C172.027 91.2927 170.909 92.3149 169.58 92.98L163.53 96H168ZM168 72L138 87L136 88V74.18C136 73.4467 136.08 72.7157 136.24 72H138.3C138.1 72.7094 137.999 73.443 138 74.18V84.76L163.53 72H168Z" fill="white" fill-opacity="0.4"/>
<g clip-path="url(#clip9_144_88)">
<path fill-rule="evenodd" clip-rule="evenodd" d="M278 72L308 87L310 88V74.18C310 73.4467 309.92 72.7157 309.76 72H307.7C307.9 72.7094 308.001 73.443 308 74.18V84.76L282.47 72H278ZM309.76 96C309.435 94.5512 308.792 93.1928 307.877 92.0235C306.962 90.8543 305.798 89.9034 304.47 89.24L272 73L270 72V85.82C270.001 87.6766 270.519 89.4963 271.496 91.0753C272.472 92.6542 273.869 93.9301 275.53 94.76L278 96H282.47L276.42 92.98C275.091 92.3149 273.973 91.2927 273.193 90.0281C272.412 88.7634 271.999 87.3062 272 85.82V75.24L303.58 91.02C304.575 91.5178 305.456 92.2179 306.165 93.0754C306.875 93.9329 307.397 94.929 307.7 96H309.76ZM346 96L348.47 94.76C350.131 93.9301 351.528 92.6542 352.504 91.0753C353.481 89.4963 353.999 87.6766 354 85.82V72L352 73L319.53 89.24C318.202 89.9034 317.038 90.8543 316.123 92.0235C315.208 93.1928 314.565 94.5512 314.24 96H316.3C316.603 94.929 317.125 93.9329 317.835 93.0754C318.544 92.2179 319.425 91.5178 320.42 91.02L352 75.24V85.82C352.001 87.3062 351.588 88.7634 350.807 90.0281C350.027 91.2927 348.909 92.3149 347.58 92.98L341.53 96H346ZM346 72L316 87L314 88V74.18C314 73.4467 314.08 72.7157 314.24 72H316.3C316.1 72.7094 315.999 73.443 316 74.18V84.76L341.53 72H346Z" fill="white" fill-opacity="0.4"/>
</g>
<g clip-path="url(#clip10_144_88)">
<path fill-rule="evenodd" clip-rule="evenodd" d="M189 72L219 87L221 88V74.18C221 73.4467 220.92 72.7157 220.76 72H218.7C218.9 72.7094 219.001 73.443 219 74.18V84.76L193.47 72H189ZM220.76 96C220.435 94.5512 219.792 93.1928 218.877 92.0235C217.962 90.8543 216.798 89.9034 215.47 89.24L183 73L181 72V85.82C181.001 87.6766 181.519 89.4963 182.496 91.0753C183.472 92.6542 184.869 93.9301 186.53 94.76L189 96H193.47L187.42 92.98C186.091 92.3149 184.973 91.2927 184.193 90.0281C183.412 88.7634 182.999 87.3062 183 85.82V75.24L214.58 91.02C215.575 91.5178 216.456 92.2179 217.165 93.0754C217.875 93.9329 218.397 94.929 218.7 96H220.76ZM257 96L259.47 94.76C261.131 93.9301 262.528 92.6542 263.504 91.0753C264.481 89.4963 264.999 87.6766 265 85.82V72L263 73L230.53 89.24C229.202 89.9034 228.038 90.8543 227.123 92.0235C226.208 93.1928 225.565 94.5512 225.24 96H227.3C227.603 94.929 228.125 93.9329 228.835 93.0754C229.544 92.2179 230.425 91.5178 231.42 91.02L263 75.24V85.82C263.001 87.3062 262.588 88.7634 261.807 90.0281C261.027 91.2927 259.909 92.3149 258.58 92.98L252.53 96H257ZM257 72L227 87L225 88V74.18C225 73.4467 225.08 72.7157 225.24 72H227.3C227.1 72.7094 226.999 73.443 227 74.18V84.76L252.53 72H257Z" fill="white" fill-opacity="0.4"/>
</g>
<g clip-path="url(#clip11_144_88)">
<path fill-rule="evenodd" clip-rule="evenodd" d="M11 72L41 87L43 88V74.18C43.0002 73.4467 42.9197 72.7157 42.76 72H40.7C40.8999 72.7094 41.0009 73.443 41 74.18V84.76L15.47 72H11ZM42.76 96C42.4354 94.5512 41.7922 93.1928 40.8772 92.0235C39.9622 90.8543 38.7983 89.9034 37.47 89.24L5 73L3 72V85.82C3.00099 87.6766 3.51883 89.4963 4.49552 91.0753C5.47222 92.6542 6.86919 93.9301 8.53 94.76L11 96H15.47L9.42 92.98C8.09088 92.3149 6.97332 91.2927 6.19261 90.0281C5.41191 88.7634 4.99894 87.3062 5 85.82V75.24L36.58 91.02C37.5754 91.5178 38.4559 92.2179 39.1653 93.0754C39.8747 93.9329 40.3974 94.929 40.7 96H42.76ZM79 96L81.47 94.76C83.1308 93.9301 84.5278 92.6542 85.5045 91.0753C86.4812 89.4963 86.999 87.6766 87 85.82V72L85 73L52.53 89.24C51.2017 89.9034 50.0378 90.8543 49.1228 92.0235C48.2078 93.1928 47.5646 94.5512 47.24 96H49.3C49.6026 94.929 50.1253 93.9329 50.8347 93.0754C51.5441 92.2179 52.4246 91.5178 53.42 91.02L85 75.24V85.82C85.0011 87.3062 84.5881 88.7634 83.8074 90.0281C83.0267 91.2927 81.9091 92.3149 80.58 92.98L74.53 96H79ZM79 72L49 87L47 88V74.18C46.9998 73.4467 47.0803 72.7157 47.24 72H49.3C49.1001 72.7094 48.9991 73.443 49 74.18V84.76L74.53 72H79Z" fill="white" fill-opacity="0.4"/>
</g>
<path fill-rule="evenodd" clip-rule="evenodd" d="M100 96L130 111L132 112V98.18C132 97.4467 131.92 96.7157 131.76 96H129.7C129.9 96.7094 130.001 97.443 130 98.18V108.76L104.47 96H100ZM131.76 120C131.435 118.551 130.792 117.193 129.877 116.024C128.962 114.854 127.798 113.903 126.47 113.24L94 97L92 96V109.82C92.001 111.677 92.5188 113.496 93.4955 115.075C94.4722 116.654 95.8692 117.93 97.53 118.76L100 120H104.47L98.42 116.98C97.0909 116.315 95.9733 115.293 95.1926 114.028C94.4119 112.763 93.9989 111.306 94 109.82V99.24L125.58 115.02C126.575 115.518 127.456 116.218 128.165 117.075C128.875 117.933 129.397 118.929 129.7 120H131.76ZM168 120L170.47 118.76C172.131 117.93 173.528 116.654 174.504 115.075C175.481 113.496 175.999 111.677 176 109.82V96L174 97L141.53 113.24C140.202 113.903 139.038 114.854 138.123 116.024C137.208 117.193 136.565 118.551 136.24 120H138.3C138.603 118.929 139.125 117.933 139.835 117.075C140.544 116.218 141.425 115.518 142.42 115.02L174 99.24V109.82C174.001 111.306 173.588 112.763 172.807 114.028C172.027 115.293 170.909 116.315 169.58 116.98L163.53 120H168ZM168 96L138 111L136 112V98.18C136 97.4467 136.08 96.7157 136.24 96H138.3C138.1 96.7094 137.999 97.443 138 98.18V108.76L163.53 96H168Z" fill="white" fill-opacity="0.4"/>
<g clip-path="url(#clip12_144_88)">
<path fill-rule="evenodd" clip-rule="evenodd" d="M278 96L308 111L310 112V98.18C310 97.4467 309.92 96.7157 309.76 96H307.7C307.9 96.7094 308.001 97.443 308 98.18V108.76L282.47 96H278ZM309.76 120C309.435 118.551 308.792 117.193 307.877 116.024C306.962 114.854 305.798 113.903 304.47 113.24L272 97L270 96V109.82C270.001 111.677 270.519 113.496 271.496 115.075C272.472 116.654 273.869 117.93 275.53 118.76L278 120H282.47L276.42 116.98C275.091 116.315 273.973 115.293 273.193 114.028C272.412 112.763 271.999 111.306 272 109.82V99.24L303.58 115.02C304.575 115.518 305.456 116.218 306.165 117.075C306.875 117.933 307.397 118.929 307.7 120H309.76ZM346 120L348.47 118.76C350.131 117.93 351.528 116.654 352.504 115.075C353.481 113.496 353.999 111.677 354 109.82V96L352 97L319.53 113.24C318.202 113.903 317.038 114.854 316.123 116.024C315.208 117.193 314.565 118.551 314.24 120H316.3C316.603 118.929 317.125 117.933 317.835 117.075C318.544 116.218 319.425 115.518 320.42 115.02L352 99.24V109.82C352.001 111.306 351.588 112.763 350.807 114.028C350.027 115.293 348.909 116.315 347.58 116.98L341.53 120H346ZM346 96L316 111L314 112V98.18C314 97.4467 314.08 96.7157 314.24 96H316.3C316.1 96.7094 315.999 97.443 316 98.18V108.76L341.53 96H346Z" fill="white" fill-opacity="0.4"/>
</g>
<g clip-path="url(#clip13_144_88)">
<path fill-rule="evenodd" clip-rule="evenodd" d="M189 96L219 111L221 112V98.18C221 97.4467 220.92 96.7157 220.76 96H218.7C218.9 96.7094 219.001 97.443 219 98.18V108.76L193.47 96H189ZM220.76 120C220.435 118.551 219.792 117.193 218.877 116.024C217.962 114.854 216.798 113.903 215.47 113.24L183 97L181 96V109.82C181.001 111.677 181.519 113.496 182.496 115.075C183.472 116.654 184.869 117.93 186.53 118.76L189 120H193.47L187.42 116.98C186.091 116.315 184.973 115.293 184.193 114.028C183.412 112.763 182.999 111.306 183 109.82V99.24L214.58 115.02C215.575 115.518 216.456 116.218 217.165 117.075C217.875 117.933 218.397 118.929 218.7 120H220.76ZM257 120L259.47 118.76C261.131 117.93 262.528 116.654 263.504 115.075C264.481 113.496 264.999 111.677 265 109.82V96L263 97L230.53 113.24C229.202 113.903 228.038 114.854 227.123 116.024C226.208 117.193 225.565 118.551 225.24 120H227.3C227.603 118.929 228.125 117.933 228.835 117.075C229.544 116.218 230.425 115.518 231.42 115.02L263 99.24V109.82C263.001 111.306 262.588 112.763 261.807 114.028C261.027 115.293 259.909 116.315 258.58 116.98L252.53 120H257ZM257 96L227 111L225 112V98.18C225 97.4467 225.08 96.7157 225.24 96H227.3C227.1 96.7094 226.999 97.443 227 98.18V108.76L252.53 96H257Z" fill="white" fill-opacity="0.4"/>
</g>
<g clip-path="url(#clip14_144_88)">
<path fill-rule="evenodd" clip-rule="evenodd" d="M11 96L41 111L43 112V98.18C43.0002 97.4467 42.9197 96.7157 42.76 96H40.7C40.8999 96.7094 41.0009 97.443 41 98.18V108.76L15.47 96H11ZM42.76 120C42.4354 118.551 41.7922 117.193 40.8772 116.024C39.9622 114.854 38.7983 113.903 37.47 113.24L5 97L3 96V109.82C3.00099 111.677 3.51883 113.496 4.49552 115.075C5.47222 116.654 6.86919 117.93 8.53 118.76L11 120H15.47L9.42 116.98C8.09088 116.315 6.97332 115.293 6.19261 114.028C5.41191 112.763 4.99894 111.306 5 109.82V99.24L36.58 115.02C37.5754 115.518 38.4559 116.218 39.1653 117.075C39.8747 117.933 40.3974 118.929 40.7 120H42.76ZM79 120L81.47 118.76C83.1308 117.93 84.5278 116.654 85.5045 115.075C86.4812 113.496 86.999 111.677 87 109.82V96L85 97L52.53 113.24C51.2017 113.903 50.0378 114.854 49.1228 116.024C48.2078 117.193 47.5646 118.551 47.24 120H49.3C49.6026 118.929 50.1253 117.933 50.8347 117.075C51.5441 116.218 52.4246 115.518 53.42 115.02L85 99.24V109.82C85.0011 111.306 84.5881 112.763 83.8074 114.028C83.0267 115.293 81.9091 116.315 80.58 116.98L74.53 120H79ZM79 96L49 111L47 112V98.18C46.9998 97.4467 47.0803 96.7157 47.24 96H49.3C49.1001 96.7094 48.9991 97.443 49 98.18V108.76L74.53 96H79Z" fill="white" fill-opacity="0.4"/>
</g>
<path fill-rule="evenodd" clip-rule="evenodd" d="M100 120L130 135L132 136V122.18C132 121.447 131.92 120.716 131.76 120H129.7C129.9 120.709 130.001 121.443 130 122.18V132.76L104.47 120H100ZM131.76 144C131.435 142.551 130.792 141.193 129.877 140.024C128.962 138.854 127.798 137.903 126.47 137.24L94 121L92 120V133.82C92.001 135.677 92.5188 137.496 93.4955 139.075C94.4722 140.654 95.8692 141.93 97.53 142.76L100 144H104.47L98.42 140.98C97.0909 140.315 95.9733 139.293 95.1926 138.028C94.4119 136.763 93.9989 135.306 94 133.82V123.24L125.58 139.02C126.575 139.518 127.456 140.218 128.165 141.075C128.875 141.933 129.397 142.929 129.7 144H131.76ZM168 144L170.47 142.76C172.131 141.93 173.528 140.654 174.504 139.075C175.481 137.496 175.999 135.677 176 133.82V120L174 121L141.53 137.24C140.202 137.903 139.038 138.854 138.123 140.024C137.208 141.193 136.565 142.551 136.24 144H138.3C138.603 142.929 139.125 141.933 139.835 141.075C140.544 140.218 141.425 139.518 142.42 139.02L174 123.24V133.82C174.001 135.306 173.588 136.763 172.807 138.028C172.027 139.293 170.909 140.315 169.58 140.98L163.53 144H168ZM168 120L138 135L136 136V122.18C136 121.447 136.08 120.716 136.24 120H138.3C138.1 120.709 137.999 121.443 138 122.18V132.76L163.53 120H168Z" fill="white" fill-opacity="0.4"/>
<g clip-path="url(#clip15_144_88)">
<path fill-rule="evenodd" clip-rule="evenodd" d="M278 120L308 135L310 136V122.18C310 121.447 309.92 120.716 309.76 120H307.7C307.9 120.709 308.001 121.443 308 122.18V132.76L282.47 120H278ZM309.76 144C309.435 142.551 308.792 141.193 307.877 140.024C306.962 138.854 305.798 137.903 304.47 137.24L272 121L270 120V133.82C270.001 135.677 270.519 137.496 271.496 139.075C272.472 140.654 273.869 141.93 275.53 142.76L278 144H282.47L276.42 140.98C275.091 140.315 273.973 139.293 273.193 138.028C272.412 136.763 271.999 135.306 272 133.82V123.24L303.58 139.02C304.575 139.518 305.456 140.218 306.165 141.075C306.875 141.933 307.397 142.929 307.7 144H309.76ZM346 144L348.47 142.76C350.131 141.93 351.528 140.654 352.504 139.075C353.481 137.496 353.999 135.677 354 133.82V120L352 121L319.53 137.24C318.202 137.903 317.038 138.854 316.123 140.024C315.208 141.193 314.565 142.551 314.24 144H316.3C316.603 142.929 317.125 141.933 317.835 141.075C318.544 140.218 319.425 139.518 320.42 139.02L352 123.24V133.82C352.001 135.306 351.588 136.763 350.807 138.028C350.027 139.293 348.909 140.315 347.58 140.98L341.53 144H346ZM346 120L316 135L314 136V122.18C314 121.447 314.08 120.716 314.24 120H316.3C316.1 120.709 315.999 121.443 316 122.18V132.76L341.53 120H346Z" fill="white" fill-opacity="0.4"/>
</g>
<g clip-path="url(#clip16_144_88)">
<path fill-rule="evenodd" clip-rule="evenodd" d="M189 120L219 135L221 136V122.18C221 121.447 220.92 120.716 220.76 120H218.7C218.9 120.709 219.001 121.443 219 122.18V132.76L193.47 120H189ZM220.76 144C220.435 142.551 219.792 141.193 218.877 140.024C217.962 138.854 216.798 137.903 215.47 137.24L183 121L181 120V133.82C181.001 135.677 181.519 137.496 182.496 139.075C183.472 140.654 184.869 141.93 186.53 142.76L189 144H193.47L187.42 140.98C186.091 140.315 184.973 139.293 184.193 138.028C183.412 136.763 182.999 135.306 183 133.82V123.24L214.58 139.02C215.575 139.518 216.456 140.218 217.165 141.075C217.875 141.933 218.397 142.929 218.7 144H220.76ZM257 144L259.47 142.76C261.131 141.93 262.528 140.654 263.504 139.075C264.481 137.496 264.999 135.677 265 133.82V120L263 121L230.53 137.24C229.202 137.903 228.038 138.854 227.123 140.024C226.208 141.193 225.565 142.551 225.24 144H227.3C227.603 142.929 228.125 141.933 228.835 141.075C229.544 140.218 230.425 139.518 231.42 139.02L263 123.24V133.82C263.001 135.306 262.588 136.763 261.807 138.028C261.027 139.293 259.909 140.315 258.58 140.98L252.53 144H257ZM257 120L227 135L225 136V122.18C225 121.447 225.08 120.716 225.24 120H227.3C227.1 120.709 226.999 121.443 227 122.18V132.76L252.53 120H257Z" fill="white" fill-opacity="0.4"/>
</g>
<g clip-path="url(#clip17_144_88)">
<path fill-rule="evenodd" clip-rule="evenodd" d="M11 120L41 135L43 136V122.18C43.0002 121.447 42.9197 120.716 42.76 120H40.7C40.8999 120.709 41.0009 121.443 41 122.18V132.76L15.47 120H11ZM42.76 144C42.4354 142.551 41.7922 141.193 40.8772 140.024C39.9622 138.854 38.7983 137.903 37.47 137.24L5 121L3 120V133.82C3.00099 135.677 3.51883 137.496 4.49552 139.075C5.47222 140.654 6.86919 141.93 8.53 142.76L11 144H15.47L9.42 140.98C8.09088 140.315 6.97332 139.293 6.19261 138.028C5.41191 136.763 4.99894 135.306 5 133.82V123.24L36.58 139.02C37.5754 139.518 38.4559 140.218 39.1653 141.075C39.8747 141.933 40.3974 142.929 40.7 144H42.76ZM79 144L81.47 142.76C83.1308 141.93 84.5278 140.654 85.5045 139.075C86.4812 137.496 86.999 135.677 87 133.82V120L85 121L52.53 137.24C51.2017 137.903 50.0378 138.854 49.1228 140.024C48.2078 141.193 47.5646 142.551 47.24 144H49.3C49.6026 142.929 50.1253 141.933 50.8347 141.075C51.5441 140.218 52.4246 139.518 53.42 139.02L85 123.24V133.82C85.0011 135.306 84.5881 136.763 83.8074 138.028C83.0267 139.293 81.9091 140.315 80.58 140.98L74.53 144H79ZM79 120L49 135L47 136V122.18C46.9998 121.447 47.0803 120.716 47.24 120H49.3C49.1001 120.709 48.9991 121.443 49 122.18V132.76L74.53 120H79Z" fill="white" fill-opacity="0.4"/>
</g>
<path fill-rule="evenodd" clip-rule="evenodd" d="M100 144L130 159L132 160V146.18C132 145.447 131.92 144.716 131.76 144H129.7C129.9 144.709 130.001 145.443 130 146.18V156.76L104.47 144H100ZM131.76 168C131.435 166.551 130.792 165.193 129.877 164.024C128.962 162.854 127.798 161.903 126.47 161.24L94 145L92 144V157.82C92.001 159.677 92.5188 161.496 93.4955 163.075C94.4722 164.654 95.8692 165.93 97.53 166.76L100 168H104.47L98.42 164.98C97.0909 164.315 95.9733 163.293 95.1926 162.028C94.4119 160.763 93.9989 159.306 94 157.82V147.24L125.58 163.02C126.575 163.518 127.456 164.218 128.165 165.075C128.875 165.933 129.397 166.929 129.7 168H131.76ZM168 168L170.47 166.76C172.131 165.93 173.528 164.654 174.504 163.075C175.481 161.496 175.999 159.677 176 157.82V144L174 145L141.53 161.24C140.202 161.903 139.038 162.854 138.123 164.024C137.208 165.193 136.565 166.551 136.24 168H138.3C138.603 166.929 139.125 165.933 139.835 165.075C140.544 164.218 141.425 163.518 142.42 163.02L174 147.24V157.82C174.001 159.306 173.588 160.763 172.807 162.028C172.027 163.293 170.909 164.315 169.58 164.98L163.53 168H168ZM168 144L138 159L136 160V146.18C136 145.447 136.08 144.716 136.24 144H138.3C138.1 144.709 137.999 145.443 138 146.18V156.76L163.53 144H168Z" fill="white" fill-opacity="0.4"/>
<g clip-path="url(#clip18_144_88)">
<path fill-rule="evenodd" clip-rule="evenodd" d="M278 144L308 159L310 160V146.18C310 145.447 309.92 144.716 309.76 144H307.7C307.9 144.709 308.001 145.443 308 146.18V156.76L282.47 144H278ZM309.76 168C309.435 166.551 308.792 165.193 307.877 164.024C306.962 162.854 305.798 161.903 304.47 161.24L272 145L270 144V157.82C270.001 159.677 270.519 161.496 271.496 163.075C272.472 164.654 273.869 165.93 275.53 166.76L278 168H282.47L276.42 164.98C275.091 164.315 273.973 163.293 273.193 162.028C272.412 160.763 271.999 159.306 272 157.82V147.24L303.58 163.02C304.575 163.518 305.456 164.218 306.165 165.075C306.875 165.933 307.397 166.929 307.7 168H309.76ZM346 168L348.47 166.76C350.131 165.93 351.528 164.654 352.504 163.075C353.481 161.496 353.999 159.677 354 157.82V144L352 145L319.53 161.24C318.202 161.903 317.038 162.854 316.123 164.024C315.208 165.193 314.565 166.551 314.24 168H316.3C316.603 166.929 317.125 165.933 317.835 165.075C318.544 164.218 319.425 163.518 320.42 163.02L352 147.24V157.82C352.001 159.306 351.588 160.763 350.807 162.028C350.027 163.293 348.909 164.315 347.58 164.98L341.53 168H346ZM346 144L316 159L314 160V146.18C314 145.447 314.08 144.716 314.24 144H316.3C316.1 144.709 315.999 145.443 316 146.18V156.76L341.53 144H346Z" fill="white" fill-opacity="0.4"/>
</g>
<g clip-path="url(#clip19_144_88)">
<path fill-rule="evenodd" clip-rule="evenodd" d="M189 144L219 159L221 160V146.18C221 145.447 220.92 144.716 220.76 144H218.7C218.9 144.709 219.001 145.443 219 146.18V156.76L193.47 144H189ZM220.76 168C220.435 166.551 219.792 165.193 218.877 164.024C217.962 162.854 216.798 161.903 215.47 161.24L183 145L181 144V157.82C181.001 159.677 181.519 161.496 182.496 163.075C183.472 164.654 184.869 165.93 186.53 166.76L189 168H193.47L187.42 164.98C186.091 164.315 184.973 163.293 184.193 162.028C183.412 160.763 182.999 159.306 183 157.82V147.24L214.58 163.02C215.575 163.518 216.456 164.218 217.165 165.075C217.875 165.933 218.397 166.929 218.7 168H220.76ZM257 168L259.47 166.76C261.131 165.93 262.528 164.654 263.504 163.075C264.481 161.496 264.999 159.677 265 157.82V144L263 145L230.53 161.24C229.202 161.903 228.038 162.854 227.123 164.024C226.208 165.193 225.565 166.551 225.24 168H227.3C227.603 166.929 228.125 165.933 228.835 165.075C229.544 164.218 230.425 163.518 231.42 163.02L263 147.24V157.82C263.001 159.306 262.588 160.763 261.807 162.028C261.027 163.293 259.909 164.315 258.58 164.98L252.53 168H257ZM257 144L227 159L225 160V146.18C225 145.447 225.08 144.716 225.24 144H227.3C227.1 144.709 226.999 145.443 227 146.18V156.76L252.53 144H257Z" fill="white" fill-opacity="0.4"/>
</g>
<g clip-path="url(#clip20_144_88)">
<path fill-rule="evenodd" clip-rule="evenodd" d="M11 144L41 159L43 160V146.18C43.0002 145.447 42.9197 144.716 42.76 144H40.7C40.8999 144.709 41.0009 145.443 41 146.18V156.76L15.47 144H11ZM42.76 168C42.4354 166.551 41.7922 165.193 40.8772 164.024C39.9622 162.854 38.7983 161.903 37.47 161.24L5 145L3 144V157.82C3.00099 159.677 3.51883 161.496 4.49552 163.075C5.47222 164.654 6.86919 165.93 8.53 166.76L11 168H15.47L9.42 164.98C8.09088 164.315 6.97332 163.293 6.19261 162.028C5.41191 160.763 4.99894 159.306 5 157.82V147.24L36.58 163.02C37.5754 163.518 38.4559 164.218 39.1653 165.075C39.8747 165.933 40.3974 166.929 40.7 168H42.76ZM79 168L81.47 166.76C83.1308 165.93 84.5278 164.654 85.5045 163.075C86.4812 161.496 86.999 159.677 87 157.82V144L85 145L52.53 161.24C51.2017 161.903 50.0378 162.854 49.1228 164.024C48.2078 165.193 47.5646 166.551 47.24 168H49.3C49.6026 166.929 50.1253 165.933 50.8347 165.075C51.5441 164.218 52.4246 163.518 53.42 163.02L85 147.24V157.82C85.0011 159.306 84.5881 160.763 83.8074 162.028C83.0267 163.293 81.9091 164.315 80.58 164.98L74.53 168H79ZM79 144L49 159L47 160V146.18C46.9998 145.447 47.0803 144.716 47.24 144H49.3C49.1001 144.709 48.9991 145.443 49 146.18V156.76L74.53 144H79Z" fill="white" fill-opacity="0.4"/>
</g>
<path fill-rule="evenodd" clip-rule="evenodd" d="M100 168L130 183L132 184V170.18C132 169.447 131.92 168.716 131.76 168H129.7C129.9 168.709 130.001 169.443 130 170.18V180.76L104.47 168H100ZM131.76 192C131.435 190.551 130.792 189.193 129.877 188.024C128.962 186.854 127.798 185.903 126.47 185.24L94 169L92 168V181.82C92.001 183.677 92.5188 185.496 93.4955 187.075C94.4722 188.654 95.8692 189.93 97.53 190.76L100 192H104.47L98.42 188.98C97.0909 188.315 95.9733 187.293 95.1926 186.028C94.4119 184.763 93.9989 183.306 94 181.82V171.24L125.58 187.02C126.575 187.518 127.456 188.218 128.165 189.075C128.875 189.933 129.397 190.929 129.7 192H131.76ZM168 192L170.47 190.76C172.131 189.93 173.528 188.654 174.504 187.075C175.481 185.496 175.999 183.677 176 181.82V168L174 169L141.53 185.24C140.202 185.903 139.038 186.854 138.123 188.024C137.208 189.193 136.565 190.551 136.24 192H138.3C138.603 190.929 139.125 189.933 139.835 189.075C140.544 188.218 141.425 187.518 142.42 187.02L174 171.24V181.82C174.001 183.306 173.588 184.763 172.807 186.028C172.027 187.293 170.909 188.315 169.58 188.98L163.53 192H168ZM168 168L138 183L136 184V170.18C136 169.447 136.08 168.716 136.24 168H138.3C138.1 168.709 137.999 169.443 138 170.18V180.76L163.53 168H168Z" fill="white" fill-opacity="0.4"/>
<g clip-path="url(#clip21_144_88)">
<path fill-rule="evenodd" clip-rule="evenodd" d="M278 168L308 183L310 184V170.18C310 169.447 309.92 168.716 309.76 168H307.7C307.9 168.709 308.001 169.443 308 170.18V180.76L282.47 168H278ZM309.76 192C309.435 190.551 308.792 189.193 307.877 188.024C306.962 186.854 305.798 185.903 304.47 185.24L272 169L270 168V181.82C270.001 183.677 270.519 185.496 271.496 187.075C272.472 188.654 273.869 189.93 275.53 190.76L278 192H282.47L276.42 188.98C275.091 188.315 273.973 187.293 273.193 186.028C272.412 184.763 271.999 183.306 272 181.82V171.24L303.58 187.02C304.575 187.518 305.456 188.218 306.165 189.075C306.875 189.933 307.397 190.929 307.7 192H309.76ZM346 192L348.47 190.76C350.131 189.93 351.528 188.654 352.504 187.075C353.481 185.496 353.999 183.677 354 181.82V168L352 169L319.53 185.24C318.202 185.903 317.038 186.854 316.123 188.024C315.208 189.193 314.565 190.551 314.24 192H316.3C316.603 190.929 317.125 189.933 317.835 189.075C318.544 188.218 319.425 187.518 320.42 187.02L352 171.24V181.82C352.001 183.306 351.588 184.763 350.807 186.028C350.027 187.293 348.909 188.315 347.58 188.98L341.53 192H346ZM346 168L316 183L314 184V170.18C314 169.447 314.08 168.716 314.24 168H316.3C316.1 168.709 315.999 169.443 316 170.18V180.76L341.53 168H346Z" fill="white" fill-opacity="0.4"/>
</g>
<g clip-path="url(#clip22_144_88)">
<path fill-rule="evenodd" clip-rule="evenodd" d="M189 168L219 183L221 184V170.18C221 169.447 220.92 168.716 220.76 168H218.7C218.9 168.709 219.001 169.443 219 170.18V180.76L193.47 168H189ZM220.76 192C220.435 190.551 219.792 189.193 218.877 188.024C217.962 186.854 216.798 185.903 215.47 185.24L183 169L181 168V181.82C181.001 183.677 181.519 185.496 182.496 187.075C183.472 188.654 184.869 189.93 186.53 190.76L189 192H193.47L187.42 188.98C186.091 188.315 184.973 187.293 184.193 186.028C183.412 184.763 182.999 183.306 183 181.82V171.24L214.58 187.02C215.575 187.518 216.456 188.218 217.165 189.075C217.875 189.933 218.397 190.929 218.7 192H220.76ZM257 192L259.47 190.76C261.131 189.93 262.528 188.654 263.504 187.075C264.481 185.496 264.999 183.677 265 181.82V168L263 169L230.53 185.24C229.202 185.903 228.038 186.854 227.123 188.024C226.208 189.193 225.565 190.551 225.24 192H227.3C227.603 190.929 228.125 189.933 228.835 189.075C229.544 188.218 230.425 187.518 231.42 187.02L263 171.24V181.82C263.001 183.306 262.588 184.763 261.807 186.028C261.027 187.293 259.909 188.315 258.58 188.98L252.53 192H257ZM257 168L227 183L225 184V170.18C225 169.447 225.08 168.716 225.24 168H227.3C227.1 168.709 226.999 169.443 227 170.18V180.76L252.53 168H257Z" fill="white" fill-opacity="0.4"/>
</g>
<g clip-path="url(#clip23_144_88)">
<path fill-rule="evenodd" clip-rule="evenodd" d="M11 168L41 183L43 184V170.18C43.0002 169.447 42.9197 168.716 42.76 168H40.7C40.8999 168.709 41.0009 169.443 41 170.18V180.76L15.47 168H11ZM42.76 192C42.4354 190.551 41.7922 189.193 40.8772 188.024C39.9622 186.854 38.7983 185.903 37.47 185.24L5 169L3 168V181.82C3.00099 183.677 3.51883 185.496 4.49552 187.075C5.47222 188.654 6.86919 189.93 8.53 190.76L11 192H15.47L9.42 188.98C8.09088 188.315 6.97332 187.293 6.19261 186.028C5.41191 184.763 4.99894 183.306 5 181.82V171.24L36.58 187.02C37.5754 187.518 38.4559 188.218 39.1653 189.075C39.8747 189.933 40.3974 190.929 40.7 192H42.76ZM79 192L81.47 190.76C83.1308 189.93 84.5278 188.654 85.5045 187.075C86.4812 185.496 86.999 183.677 87 181.82V168L85 169L52.53 185.24C51.2017 185.903 50.0378 186.854 49.1228 188.024C48.2078 189.193 47.5646 190.551 47.24 192H49.3C49.6026 190.929 50.1253 189.933 50.8347 189.075C51.5441 188.218 52.4246 187.518 53.42 187.02L85 171.24V181.82C85.0011 183.306 84.5881 184.763 83.8074 186.028C83.0267 187.293 81.9091 188.315 80.58 188.98L74.53 192H79ZM79 168L49 183L47 184V170.18C46.9998 169.447 47.0803 168.716 47.24 168H49.3C49.1001 168.709 48.9991 169.443 49 170.18V180.76L74.53 168H79Z" fill="white" fill-opacity="0.4"/>
</g>
<defs>
<clipPath id="clip0_144_88">
<rect width="88" height="24" fill="white" transform="translate(268)"/>
</clipPath>
<clipPath id="clip1_144_88">
<rect width="88" height="24" fill="white" transform="translate(179)"/>
</clipPath>
<clipPath id="clip2_144_88">
<rect width="88" height="24" fill="white" transform="translate(1)"/>
</clipPath>
<clipPath id="clip3_144_88">
<rect width="88" height="24" fill="white" transform="translate(268 24)"/>
</clipPath>
<clipPath id="clip4_144_88">
<rect width="88" height="24" fill="white" transform="translate(179 24)"/>
</clipPath>
<clipPath id="clip5_144_88">
<rect width="88" height="24" fill="white" transform="translate(1 24)"/>
</clipPath>
<clipPath id="clip6_144_88">
<rect width="88" height="24" fill="white" transform="translate(268 48)"/>
</clipPath>
<clipPath id="clip7_144_88">
<rect width="88" height="24" fill="white" transform="translate(179 48)"/>
</clipPath>
<clipPath id="clip8_144_88">
<rect width="88" height="24" fill="white" transform="translate(1 48)"/>
</clipPath>
<clipPath id="clip9_144_88">
<rect width="88" height="24" fill="white" transform="translate(268 72)"/>
</clipPath>
<clipPath id="clip10_144_88">
<rect width="88" height="24" fill="white" transform="translate(179 72)"/>
</clipPath>
<clipPath id="clip11_144_88">
<rect width="88" height="24" fill="white" transform="translate(1 72)"/>
</clipPath>
<clipPath id="clip12_144_88">
<rect width="88" height="24" fill="white" transform="translate(268 96)"/>
</clipPath>
<clipPath id="clip13_144_88">
<rect width="88" height="24" fill="white" transform="translate(179 96)"/>
</clipPath>
<clipPath id="clip14_144_88">
<rect width="88" height="24" fill="white" transform="translate(1 96)"/>
</clipPath>
<clipPath id="clip15_144_88">
<rect width="88" height="24" fill="white" transform="translate(268 120)"/>
</clipPath>
<clipPath id="clip16_144_88">
<rect width="88" height="24" fill="white" transform="translate(179 120)"/>
</clipPath>
<clipPath id="clip17_144_88">
<rect width="88" height="24" fill="white" transform="translate(1 120)"/>
</clipPath>
<clipPath id="clip18_144_88">
<rect width="88" height="24" fill="white" transform="translate(268 144)"/>
</clipPath>
<clipPath id="clip19_144_88">
<rect width="88" height="24" fill="white" transform="translate(179 144)"/>
</clipPath>
<clipPath id="clip20_144_88">
<rect width="88" height="24" fill="white" transform="translate(1 144)"/>
</clipPath>
<clipPath id="clip21_144_88">
<rect width="88" height="24" fill="white" transform="translate(268 168)"/>
</clipPath>
<clipPath id="clip22_144_88">
<rect width="88" height="24" fill="white" transform="translate(179 168)"/>
</clipPath>
<clipPath id="clip23_144_88">
<rect width="88" height="24" fill="white" transform="translate(1 168)"/>
</clipPath>
</defs>
</svg>
