<svg width="358" height="192" viewBox="0 0 358 192" fill="none" xmlns="http://www.w3.org/2000/svg">
<rect width="358" height="192" fill="#D42257"/>
<g clip-path="url(#clip0_146_327)">
<path fill-rule="evenodd" clip-rule="evenodd" d="M305 5H317L311 15L305 5ZM323 35H335L329 45L323 35Z" fill="white" fill-opacity="0.4"/>
<path fill-rule="evenodd" clip-rule="evenodd" d="M129 5H141L135 15L129 5ZM147 35H159L153 45L147 35Z" fill="white" fill-opacity="0.4"/>
<path fill-rule="evenodd" clip-rule="evenodd" d="M165 5H177L171 15L165 5ZM183 35H195L189 45L183 35Z" fill="white" fill-opacity="0.4"/>
<path fill-rule="evenodd" clip-rule="evenodd" d="M201 5H213L207 15L201 5ZM219 35H231L225 45L219 35Z" fill="white" fill-opacity="0.4"/>
<path fill-rule="evenodd" clip-rule="evenodd" d="M237 5H249L243 15L237 5ZM255 35H267L261 45L255 35Z" fill="white" fill-opacity="0.4"/>
<path fill-rule="evenodd" clip-rule="evenodd" d="M269 5H281L275 15L269 5ZM287 35H299L293 45L287 35Z" fill="white" fill-opacity="0.4"/>
<path fill-rule="evenodd" clip-rule="evenodd" d="M57 5H69L63 15L57 5ZM75 35H87L81 45L75 35Z" fill="white" fill-opacity="0.4"/>
<path fill-rule="evenodd" clip-rule="evenodd" d="M21 5H33L27 15L21 5ZM39 35H51L45 45L39 35Z" fill="white" fill-opacity="0.4"/>
<path fill-rule="evenodd" clip-rule="evenodd" d="M93 5H105L99 15L93 5ZM111 35H123L117 45L111 35Z" fill="white" fill-opacity="0.4"/>
<path fill-rule="evenodd" clip-rule="evenodd" d="M303 74H315L309 84L303 74ZM321 104H333L327 114L321 104Z" fill="white" fill-opacity="0.4"/>
<path fill-rule="evenodd" clip-rule="evenodd" d="M127 74H139L133 84L127 74ZM145 104H157L151 114L145 104Z" fill="white" fill-opacity="0.4"/>
<path fill-rule="evenodd" clip-rule="evenodd" d="M163 74H175L169 84L163 74ZM181 104H193L187 114L181 104Z" fill="white" fill-opacity="0.4"/>
<path fill-rule="evenodd" clip-rule="evenodd" d="M199 74H211L205 84L199 74ZM217 104H229L223 114L217 104Z" fill="white" fill-opacity="0.4"/>
<path fill-rule="evenodd" clip-rule="evenodd" d="M235 74H247L241 84L235 74ZM253 104H265L259 114L253 104Z" fill="white" fill-opacity="0.4"/>
<path fill-rule="evenodd" clip-rule="evenodd" d="M267 74H279L273 84L267 74ZM285 104H297L291 114L285 104Z" fill="white" fill-opacity="0.4"/>
<path fill-rule="evenodd" clip-rule="evenodd" d="M55 74H67L61 84L55 74ZM73 104H85L79 114L73 104Z" fill="white" fill-opacity="0.4"/>
<path fill-rule="evenodd" clip-rule="evenodd" d="M19 74H31L25 84L19 74ZM37 104H49L43 114L37 104Z" fill="white" fill-opacity="0.4"/>
<path fill-rule="evenodd" clip-rule="evenodd" d="M91 74H103L97 84L91 74ZM109 104H121L115 114L109 104Z" fill="white" fill-opacity="0.4"/>
<path fill-rule="evenodd" clip-rule="evenodd" d="M304 143H316L310 153L304 143ZM322 173H334L328 183L322 173Z" fill="white" fill-opacity="0.4"/>
<path fill-rule="evenodd" clip-rule="evenodd" d="M128 143H140L134 153L128 143ZM146 173H158L152 183L146 173Z" fill="white" fill-opacity="0.4"/>
<path fill-rule="evenodd" clip-rule="evenodd" d="M164 143H176L170 153L164 143ZM182 173H194L188 183L182 173Z" fill="white" fill-opacity="0.4"/>
<path fill-rule="evenodd" clip-rule="evenodd" d="M200 143H212L206 153L200 143ZM218 173H230L224 183L218 173Z" fill="white" fill-opacity="0.4"/>
<path fill-rule="evenodd" clip-rule="evenodd" d="M236 143H248L242 153L236 143ZM254 173H266L260 183L254 173Z" fill="white" fill-opacity="0.4"/>
<path fill-rule="evenodd" clip-rule="evenodd" d="M268 143H280L274 153L268 143ZM286 173H298L292 183L286 173Z" fill="white" fill-opacity="0.4"/>
<path fill-rule="evenodd" clip-rule="evenodd" d="M56 143H68L62 153L56 143ZM74 173H86L80 183L74 173Z" fill="white" fill-opacity="0.4"/>
<path fill-rule="evenodd" clip-rule="evenodd" d="M20 143H32L26 153L20 143ZM38 173H50L44 183L38 173Z" fill="white" fill-opacity="0.4"/>
<path fill-rule="evenodd" clip-rule="evenodd" d="M92 143H104L98 153L92 143ZM110 173H122L116 183L110 173Z" fill="white" fill-opacity="0.4"/>
</g>
<defs>
<clipPath id="clip0_146_327">
<rect width="358" height="192" fill="white"/>
</clipPath>
</defs>
</svg>
