<svg width="358" height="192" viewBox="0 0 358 192" fill="none" xmlns="http://www.w3.org/2000/svg">
<rect width="358" height="192" fill="#D42257"/>
<path fill-rule="evenodd" clip-rule="evenodd" d="M328 61C328 55.477 332.477 51 338 51C343.523 51 348 55.477 348 61C348 66.523 343.523 71 338 71C338 76.523 333.523 81 328 81C322.477 81 318 76.523 318 71C318 65.477 322.477 61 328 61ZM288 21C288 15.477 292.477 11 298 11C303.523 11 308 15.477 308 21C308 26.523 303.523 31 298 31C298 36.523 293.523 41 288 41C282.477 41 278 36.523 278 31C278 25.477 282.477 21 288 21ZM298 29C302.418 29 306 25.418 306 21C306 16.582 302.418 13 298 13C293.582 13 290 16.582 290 21C290 25.418 293.582 29 298 29ZM338 69C342.418 69 346 65.418 346 61C346 56.582 342.418 53 338 53C333.582 53 330 56.582 330 61C330 65.418 333.582 69 338 69Z" fill="white" fill-opacity="0.4"/>
<path fill-rule="evenodd" clip-rule="evenodd" d="M237 61C237 55.477 241.477 51 247 51C252.523 51 257 55.477 257 61C257 66.523 252.523 71 247 71C247 76.523 242.523 81 237 81C231.477 81 227 76.523 227 71C227 65.477 231.477 61 237 61ZM197 21C197 15.477 201.477 11 207 11C212.523 11 217 15.477 217 21C217 26.523 212.523 31 207 31C207 36.523 202.523 41 197 41C191.477 41 187 36.523 187 31C187 25.477 191.477 21 197 21ZM207 29C211.418 29 215 25.418 215 21C215 16.582 211.418 13 207 13C202.582 13 199 16.582 199 21C199 25.418 202.582 29 207 29ZM247 69C251.418 69 255 65.418 255 61C255 56.582 251.418 53 247 53C242.582 53 239 56.582 239 61C239 65.418 242.582 69 247 69Z" fill="white" fill-opacity="0.4"/>
<path fill-rule="evenodd" clip-rule="evenodd" d="M55 61C55 55.477 59.477 51 65 51C70.523 51 75 55.477 75 61C75 66.523 70.523 71 65 71C65 76.523 60.523 81 55 81C49.477 81 45 76.523 45 71C45 65.477 49.477 61 55 61ZM15 21C15 15.477 19.477 11 25 11C30.523 11 35 15.477 35 21C35 26.523 30.523 31 25 31C25 36.523 20.523 41 15 41C9.477 41 5 36.523 5 31C5 25.477 9.477 21 15 21ZM25 29C29.418 29 33 25.418 33 21C33 16.582 29.418 13 25 13C20.582 13 17 16.582 17 21C17 25.418 20.582 29 25 29ZM65 69C69.418 69 73 65.418 73 61C73 56.582 69.418 53 65 53C60.582 53 57 56.582 57 61C57 65.418 60.582 69 65 69Z" fill="white" fill-opacity="0.4"/>
<path fill-rule="evenodd" clip-rule="evenodd" d="M146 61C146 55.477 150.477 51 156 51C161.523 51 166 55.477 166 61C166 66.523 161.523 71 156 71C156 76.523 151.523 81 146 81C140.477 81 136 76.523 136 71C136 65.477 140.477 61 146 61ZM106 21C106 15.477 110.477 11 116 11C121.523 11 126 15.477 126 21C126 26.523 121.523 31 116 31C116 36.523 111.523 41 106 41C100.477 41 96 36.523 96 31C96 25.477 100.477 21 106 21ZM116 29C120.418 29 124 25.418 124 21C124 16.582 120.418 13 116 13C111.582 13 108 16.582 108 21C108 25.418 111.582 29 116 29ZM156 69C160.418 69 164 65.418 164 61C164 56.582 160.418 53 156 53C151.582 53 148 56.582 148 61C148 65.418 151.582 69 156 69Z" fill="white" fill-opacity="0.4"/>
<path fill-rule="evenodd" clip-rule="evenodd" d="M328 156C328 150.477 332.477 146 338 146C343.523 146 348 150.477 348 156C348 161.523 343.523 166 338 166C338 171.523 333.523 176 328 176C322.477 176 318 171.523 318 166C318 160.477 322.477 156 328 156ZM288 116C288 110.477 292.477 106 298 106C303.523 106 308 110.477 308 116C308 121.523 303.523 126 298 126C298 131.523 293.523 136 288 136C282.477 136 278 131.523 278 126C278 120.477 282.477 116 288 116ZM298 124C302.418 124 306 120.418 306 116C306 111.582 302.418 108 298 108C293.582 108 290 111.582 290 116C290 120.418 293.582 124 298 124ZM338 164C342.418 164 346 160.418 346 156C346 151.582 342.418 148 338 148C333.582 148 330 151.582 330 156C330 160.418 333.582 164 338 164Z" fill="white" fill-opacity="0.4"/>
<path fill-rule="evenodd" clip-rule="evenodd" d="M237 156C237 150.477 241.477 146 247 146C252.523 146 257 150.477 257 156C257 161.523 252.523 166 247 166C247 171.523 242.523 176 237 176C231.477 176 227 171.523 227 166C227 160.477 231.477 156 237 156ZM197 116C197 110.477 201.477 106 207 106C212.523 106 217 110.477 217 116C217 121.523 212.523 126 207 126C207 131.523 202.523 136 197 136C191.477 136 187 131.523 187 126C187 120.477 191.477 116 197 116ZM207 124C211.418 124 215 120.418 215 116C215 111.582 211.418 108 207 108C202.582 108 199 111.582 199 116C199 120.418 202.582 124 207 124ZM247 164C251.418 164 255 160.418 255 156C255 151.582 251.418 148 247 148C242.582 148 239 151.582 239 156C239 160.418 242.582 164 247 164Z" fill="white" fill-opacity="0.4"/>
<path fill-rule="evenodd" clip-rule="evenodd" d="M55 156C55 150.477 59.477 146 65 146C70.523 146 75 150.477 75 156C75 161.523 70.523 166 65 166C65 171.523 60.523 176 55 176C49.477 176 45 171.523 45 166C45 160.477 49.477 156 55 156ZM15 116C15 110.477 19.477 106 25 106C30.523 106 35 110.477 35 116C35 121.523 30.523 126 25 126C25 131.523 20.523 136 15 136C9.477 136 5 131.523 5 126C5 120.477 9.477 116 15 116ZM25 124C29.418 124 33 120.418 33 116C33 111.582 29.418 108 25 108C20.582 108 17 111.582 17 116C17 120.418 20.582 124 25 124ZM65 164C69.418 164 73 160.418 73 156C73 151.582 69.418 148 65 148C60.582 148 57 151.582 57 156C57 160.418 60.582 164 65 164Z" fill="white" fill-opacity="0.4"/>
<path fill-rule="evenodd" clip-rule="evenodd" d="M146 156C146 150.477 150.477 146 156 146C161.523 146 166 150.477 166 156C166 161.523 161.523 166 156 166C156 171.523 151.523 176 146 176C140.477 176 136 171.523 136 166C136 160.477 140.477 156 146 156ZM106 116C106 110.477 110.477 106 116 106C121.523 106 126 110.477 126 116C126 121.523 121.523 126 116 126C116 131.523 111.523 136 106 136C100.477 136 96 131.523 96 126C96 120.477 100.477 116 106 116ZM116 124C120.418 124 124 120.418 124 116C124 111.582 120.418 108 116 108C111.582 108 108 111.582 108 116C108 120.418 111.582 124 116 124ZM156 164C160.418 164 164 160.418 164 156C164 151.582 160.418 148 156 148C151.582 148 148 151.582 148 156C148 160.418 151.582 164 156 164Z" fill="white" fill-opacity="0.4"/>
</svg>
