<svg width="84" height="61" viewBox="0 0 84 61" fill="none" xmlns="http://www.w3.org/2000/svg">
<g id="image" clip-path="url(#clip0_95_1101)">
<path id="Vector" d="M50.8699 36.5127C50.2914 34.2895 49.4525 32.1423 48.3707 30.1158C47.2455 28.8469 46.3885 27.1136 45.9959 25.6484C45.414 24.2238 45.1375 22.693 45.1844 21.1548C45.3236 19.6862 45.9103 18.2957 46.8651 17.1712C48.0358 15.6797 49.4028 14.9208 51.3324 14.7964C52.7252 14.8907 54.0248 15.5298 54.9498 16.5752C55.4042 17.0838 55.8135 17.6309 56.1731 18.2104C57.0305 19.3363 57.9708 20.3966 58.986 21.3826C59.3622 21.9506 59.7707 22.4965 60.2094 23.0177C60.6384 23.343 61.1065 23.6132 61.6027 23.8222C63.4604 24.8947 64.9256 24.5021 66.3644 22.5462C67.0721 21.5481 67.439 20.3484 67.4107 19.1252C67.389 18.2296 67.2816 17.3381 67.09 16.463L66.3766 12.3357C66.009 10.8599 66.1447 9.3037 66.7622 7.91389C66.8217 7.82425 66.8615 7.72298 66.8789 7.61679C66.8962 7.5106 66.8908 7.40193 66.863 7.29799C66.8351 7.19406 66.7855 7.09724 66.7173 7.01397C66.6492 6.93069 66.5641 6.86287 66.4677 6.81501L65.0744 6.01059L64.0474 5.10801C63.9898 4.96836 63.9752 4.81468 64.0055 4.66667C64.0358 4.51866 64.1096 4.38307 64.2174 4.27728C64.4092 4.06869 64.6218 3.88019 64.8518 3.7147L71.5169 0.751032C72.9821 0.358444 73.4465 0.626587 73.1065 2.28804L72.1128 8.83571C72.041 10.0327 71.6747 10.1309 70.3795 9.69274L68.4236 8.25388C68.3593 8.23665 68.2916 8.23665 68.2273 8.25388C68.163 8.27111 68.1044 8.30496 68.0573 8.35202C67.6243 8.97353 67.4104 9.72143 67.4492 10.4779C67.4214 11.2497 67.4963 12.0217 67.6718 12.7738L68.3851 16.9011C68.6128 17.7698 68.7207 18.6655 68.7059 19.5633C68.6235 21.2348 67.9299 22.8177 66.757 24.0114C65.22 25.601 63.7549 25.9936 61.9953 25.2873C60.962 24.9565 60.0117 24.4079 59.2086 23.6785C57.9071 22.4136 56.7428 21.0149 55.735 19.5056L54.6098 18.2367C54.289 17.7686 53.911 17.3424 53.4846 16.9678C53.0929 16.6603 52.6445 16.433 52.1649 16.2989C51.6853 16.1647 51.184 16.1263 50.6896 16.1859C50.1952 16.2454 49.7174 16.4018 49.2834 16.646C48.8494 16.8903 48.4678 17.2176 48.1603 17.6093C47.6882 18.1549 47.3242 18.7854 47.0877 19.4671C46.7134 20.6266 46.6392 21.8621 46.8722 23.0581C46.9968 24.4534 47.362 25.8166 47.9518 27.0873L49.2732 29.0888C50.9572 32.098 52.102 35.3786 52.6558 38.7823C53.1413 40.7143 53.1437 42.7361 52.6628 44.6692C52.0801 46.4121 50.9834 47.9378 49.517 49.0455C47.6389 50.6733 45.3186 51.705 42.8519 52.0091C41.8165 52.1901 40.7519 52.099 39.7623 51.7448C38.7727 51.3906 37.8921 50.7854 37.2068 49.9884C36.2407 48.8999 35.5002 47.6305 35.0283 46.2537C34.3911 44.0448 34.0435 41.7626 33.9943 39.4642L33.3528 34.1398C33.2668 32.3518 32.7982 30.6031 31.9787 29.0117C31.2198 27.6447 29.8265 26.8403 28.3614 27.2329C25.6992 27.5536 23.3314 28.9732 21.9907 31.2954C21.3481 32.5121 20.9043 33.8239 20.6763 35.1809C20.3918 36.5152 20.2299 37.8727 20.1926 39.2364L20.2715 43.9263L20.1278 46.3204C19.9906 47.515 19.636 48.6744 19.0816 49.7414C18.6137 50.779 17.8795 51.6741 16.9535 52.336C16.0276 52.9978 14.9429 53.4027 13.8098 53.5095C12.439 53.6331 11.0576 53.4684 9.7543 53.0258C9.47007 53.014 9.18959 52.9566 8.92357 52.8558C8.82944 52.7617 8.76174 52.6444 8.72728 52.5158C8.69282 52.3872 8.69282 52.2518 8.72728 52.1233C8.82142 52.0291 8.93868 51.9614 9.06727 51.927C9.19587 51.8925 9.33127 51.8925 9.45986 51.927L10.6569 51.9988C11.9475 52.3549 13.3048 52.3952 14.6142 52.1162C15.8528 51.7446 16.8957 50.9011 17.5182 49.7677C18.0895 48.9528 18.5103 48.0423 18.7608 47.0792C18.9774 46.0182 19.0825 44.9374 19.0745 43.8545L18.9956 39.1646C18.9728 37.3979 19.1592 35.6348 19.5511 33.9121C19.8603 32.4917 20.4301 31.141 21.2319 29.9284C22.9389 27.5081 25.6729 25.9903 28.7995 25.9377C29.5508 25.8655 30.3083 25.9813 31.0037 26.2747C31.6991 26.5681 32.3106 27.0299 32.7831 27.6184C33.2711 28.3749 33.6273 29.2087 33.8365 30.0843C34.47 32.1661 34.7855 34.3316 34.7724 36.5075C34.928 38.5417 35.2077 40.5645 35.6102 42.5645C35.7511 44.2146 36.1831 45.8267 36.8861 47.3262C37.2383 47.9107 37.6481 48.4585 38.1094 48.9614C38.6627 49.6844 39.4054 50.24 40.2552 50.5666C41.105 50.8933 42.0286 50.9783 42.9238 50.8121C44.9897 50.4524 46.916 49.5286 48.49 48.1429C49.8706 46.9321 50.8131 45.2996 51.1714 43.4985C51.8777 41.7389 51.3869 39.9075 51.3606 38.3442L50.8699 36.5127Z" fill="#6F6FFD"/>
</g>
<defs>
<clipPath id="clip0_95_1101">
<rect width="75.501" height="42.2062" fill="white" transform="translate(0.0898438 19.8896) rotate(-15)"/>
</clipPath>
</defs>
</svg>
